<svg xmlns="http://www.w3.org/2000/svg" viewBox="0 0 900 700" role="img" aria-labelledby="title desc">
<title>AI workflow intelligence orb</title><desc>Abstract AI network orb with workflow nodes.</desc><defs><radialGradient id="orb" cx="50%" cy="44%" r="62%"><stop offset="0" stop-color="#FFFFFF"/><stop offset="0.36" stop-color="#DDF4EE"/><stop offset="0.72" stop-color="#1F8178"/><stop offset="1" stop-color="#051E26"/></radialGradient><linearGradient id="gold" x1="0" x2="1"><stop offset="0" stop-color="#F2D78C"/><stop offset="1" stop-color="#B9933A"/></linearGradient><filter id="blur"><feGaussianBlur stdDeviation="18"/></filter></defs>
<rect width="900" height="700" rx="48" fill="#041E2B"/><circle cx="450" cy="350" r="240" fill="url(#orb)" opacity=".94"/><circle cx="450" cy="350" r="292" fill="none" stroke="#C9A44A" stroke-width="2" opacity=".35"/><circle cx="450" cy="350" r="338" fill="none" stroke="#E7D9B9" stroke-width="1" stroke-dasharray="5 16" opacity=".4"/><g stroke="#F7F2E8" stroke-width="2" opacity=".52"><path d="M251 246 C354 132 517 126 652 253"/><path d="M220 357 C339 307 557 313 682 369"/><path d="M263 479 C377 594 547 586 655 455"/><path d="M450 111V590"/><path d="M232 350h436"/></g><g fill="url(#gold)"><circle cx="269" cy="245" r="10"/><circle cx="365" cy="155" r="8"/><circle cx="558" cy="165" r="9"/><circle cx="647" cy="255" r="11"/><circle cx="222" cy="357" r="10"/><circle cx="362" cy="318" r="8"/><circle cx="532" cy="328" r="8"/><circle cx="684" cy="371" r="11"/><circle cx="265" cy="480" r="11"/><circle cx="391" cy="557" r="9"/><circle cx="548" cy="556" r="8"/><circle cx="655" cy="455" r="10"/></g><rect x="333" y="291" width="235" height="118" rx="28" fill="#F7F2E8"/><text x="450" y="340" text-anchor="middle" font-family="Inter, Arial" font-size="22" font-weight="700" fill="#052A2E">AI WORKFORCE</text><text x="450" y="373" text-anchor="middle" font-family="Inter, Arial" font-size="15" fill="#0B3D3F">Sales • Support • Ops • BI</text><ellipse cx="450" cy="650" rx="245" ry="28" fill="#000" opacity=".22" filter="url(#blur)"/></svg>