<svg version="1.2" xmlns="http://www.w3.org/2000/svg" viewBox="0 0 780 180" width="780" height="180"><defs><linearGradient id="P" gradientUnits="userSpaceOnUse"/><linearGradient id="g1" x2="1" href="#P" gradientTransform="matrix(57,118,-91.502,44.2,24,31)"><stop stop-color="#0b3d3f"/><stop offset="1" stop-color="#0f6b63"/></linearGradient></defs><style>tspan{white-space:pre}.a{fill:url(#g1)}.b{fill:#0f6b63}.c{opacity:.96;fill:#06343a}.d{fill:#c9a44a}.e{font-size: 64px;fill: #06343a;font-family: "Georgia"}.f{font-size: 26px;fill: #0b3d3f;font-weight: 400;font-family: "BakbakOne-Regular", "Bakbak One"}.g{font-size: 29px;fill: #0b3d3f;font-weight: 400;font-family: "BakbakOne-Regular", "Bakbak One"}</style><text transform="translate(728,230)"></text><path class="a" d="m24 31h43c8 0 14 6 14 14v90c0 8-6 14-14 14h-43z"/><path class="b" d="m87.6 86.9l2.7-15.8c5-28.5 31.5-47.3 60.1-42.3l2 0.3-3.8 21.7c-4.2 24.6-27.5 41.9-53.1 37.5z"/><path class="c" d="m86 92h22c25 0 46 20 46 46v11h-68z"/><path fill-rule="evenodd" class="d" d="m152 23c-4.4 0-8-3.6-8-8 0-4.4 3.6-8 8-8 4.4 0 8 3.6 8 8 0 4.4-3.6 8-8 8z"/><text transform="translate(215,89)"><tspan x="0" y="0" class="e">KAIROX
</tspan></text><text transform="translate(219,128)"><tspan x="0" y="0" class="f">YOUR ALWAYS-ON DIGITAL WORKFORCE</tspan><tspan  y="0" class="g">
</tspan></text></svg>