<svg version="1.2" xmlns="http://www.w3.org/2000/svg" viewBox="0 0 180 180" width="180" height="180"><defs><linearGradient id="P" gradientUnits="userSpaceOnUse"/><linearGradient id="g1" x2="1" href="#P" gradientTransform="matrix(57,118,-91.502,44.2,25,32)"><stop stop-color="#0b3d3f"/><stop offset="1" stop-color="#0f6b63"/></linearGradient></defs><style>.a{fill:#f7f2e8}.b{fill:url(#g1)}.c{fill:#0f6b63}.d{opacity:.96;fill:#06343a}.e{fill:#c9a44a}</style><path fill-rule="evenodd" class="a" d="m42 0h96c23.2 0 42 18.8 42 42v96c0 23.2-18.8 42-42 42h-96c-23.2 0-42-18.8-42-42v-96c0-23.2 18.8-42 42-42z"/><path class="b" d="m25 32h43c8 0 14 6 14 14v90c0 8-6 14-14 14h-43z"/><path class="c" d="m89.1 88.4l2.4-15.8c4.5-28.6 30.8-47.8 59.4-43.3l2 0.3-3.4 21.7c-3.8 24.7-26.8 42.4-52.5 38.4z"/><path class="d" d="m87 93h22c25 0 46 20 46 46v11h-68z"/><path fill-rule="evenodd" class="e" d="m154 24c-4.4 0-8-3.6-8-8 0-4.4 3.6-8 8-8 4.4 0 8 3.6 8 8 0 4.4-3.6 8-8 8z"/></svg>